<svg xmlns="http://www.w3.org/2000/svg" viewBox="0 0 100 100" width="100" height="100" role="img" aria-label="Ember"><title>Ember</title><g><path fill="#E0241B" d="M10.606 47.75A5 5 0 0 1 11.536 46.464L46.464 11.536A5 5 0 0 1 53.536 11.536L88.464 46.464A5 5 0 0 1 89.394 47.75Z"/><path fill="#FAFAF7" d="M10.606 52.25A5 5 0 0 0 11.536 53.536L46.464 88.464A5 5 0 0 0 53.536 88.464L88.464 53.536A5 5 0 0 0 89.394 52.25Z"/><path fill="#E0241B" d="M74.245 18.255L80.483 12.017A0.893 0.893 0 0 1 81.745 12.017L87.983 18.255A0.893 0.893 0 0 1 87.983 19.517L81.745 25.755A0.893 0.893 0 0 1 80.483 25.755L74.245 19.517A0.893 0.893 0 0 1 74.245 18.255Z"/></g></svg>
