<svg xmlns="http://www.w3.org/2000/svg" viewBox="0 0 437.318 112.635" width="437.318" height="112.635" role="img" aria-label="Ember"><title>Ember</title><g transform="translate(-1.682 -1.682) scale(1.16)"><path fill="#E0241B" d="M10.606 47.75A5 5 0 0 1 11.536 46.464L46.464 11.536A5 5 0 0 1 53.536 11.536L88.464 46.464A5 5 0 0 1 89.394 47.75Z"/><path fill="#FAFAF7" d="M10.606 52.25A5 5 0 0 0 11.536 53.536L46.464 88.464A5 5 0 0 0 53.536 88.464L88.464 53.536A5 5 0 0 0 89.394 52.25Z"/><path fill="#E0241B" d="M74.245 18.255L80.483 12.017A0.893 0.893 0 0 1 81.745 12.017L87.983 18.255A0.893 0.893 0 0 1 87.983 19.517L81.745 25.755A0.893 0.893 0 0 1 80.483 25.755L74.245 19.517A0.893 0.893 0 0 1 74.245 18.255Z"/></g><path fill="#FAFAF7" transform="translate(141.118 87.318) scale(0.1)" d="M296 14Q222 14 165.5 -17.5Q109 -49 77.5 -106.5Q46 -164 46 -242V-254Q46 -332 77.0 -389.5Q108 -447 164.0 -478.5Q220 -510 294 -510Q367 -510 421.0 -477.5Q475 -445 505.0 -387.5Q535 -330 535 -254V-211H174Q176 -160 212.0 -128.0Q248 -96 300 -96Q353 -96 378.0 -119.0Q403 -142 416 -170L519 -116Q505 -90 478.5 -59.5Q452 -29 408.0 -7.5Q364 14 296 14ZM175 -305H407Q403 -348 372.5 -374.0Q342 -400 293 -400Q242 -400 212.0 -374.0Q182 -348 175 -305ZM602 0V-496H726V-442H744Q757 -467 787.0 -485.5Q817 -504 866 -504Q919 -504 951.0 -483.5Q983 -463 1000 -430H1018Q1035 -462 1066.0 -483.0Q1097 -504 1154 -504Q1200 -504 1237.5 -484.5Q1275 -465 1297.5 -425.5Q1320 -386 1320 -326V0H1194V-317Q1194 -358 1173.0 -378.5Q1152 -399 1114 -399Q1071 -399 1047.5 -371.5Q1024 -344 1024 -293V0H898V-317Q898 -358 877.0 -378.5Q856 -399 818 -399Q775 -399 751.5 -371.5Q728 -344 728 -293V0ZM1709 14Q1642 14 1606.0 -9.0Q1570 -32 1553 -60H1535V0H1411V-700H1537V-439H1555Q1566 -457 1584.5 -473.0Q1603 -489 1633.5 -499.5Q1664 -510 1709 -510Q1769 -510 1820.0 -480.5Q1871 -451 1902.0 -394.0Q1933 -337 1933 -256V-240Q1933 -159 1902.0 -102.0Q1871 -45 1820.0 -15.5Q1769 14 1709 14ZM1671 -96Q1729 -96 1768.0 -133.5Q1807 -171 1807 -243V-253Q1807 -325 1768.5 -362.5Q1730 -400 1671 -400Q1613 -400 1574.0 -362.5Q1535 -325 1535 -253V-243Q1535 -171 1574.0 -133.5Q1613 -96 1671 -96ZM2230 14Q2156 14 2099.5 -17.5Q2043 -49 2011.5 -106.5Q1980 -164 1980 -242V-254Q1980 -332 2011.0 -389.5Q2042 -447 2098.0 -478.5Q2154 -510 2228 -510Q2301 -510 2355.0 -477.5Q2409 -445 2439.0 -387.5Q2469 -330 2469 -254V-211H2108Q2110 -160 2146.0 -128.0Q2182 -96 2234 -96Q2287 -96 2312.0 -119.0Q2337 -142 2350 -170L2453 -116Q2439 -90 2412.5 -59.5Q2386 -29 2342.0 -7.5Q2298 14 2230 14ZM2109 -305H2341Q2337 -348 2306.5 -374.0Q2276 -400 2227 -400Q2176 -400 2146.0 -374.0Q2116 -348 2109 -305ZM2536 0V-496H2660V-440H2678Q2689 -470 2714.5 -484.0Q2740 -498 2774 -498H2834V-386H2772Q2724 -386 2693.0 -360.5Q2662 -335 2662 -282V0Z"/></svg>
