<svg xmlns="http://www.w3.org/2000/svg" width="1164" height="206" viewBox="0 0 1164 206" font-family="-apple-system, 'Segoe UI', Helvetica, Arial, sans-serif" font-size="14">
<rect width="1164" height="206" fill="#0d1117" rx="6"/>
<text x="16" y="46" fill="#9198a1" font-size="12">What the program does</text>
<text x="545.0" y="22" fill="#e6edf3" font-weight="600" text-anchor="middle">MSVC</text>
<line x1="440" y1="30" x2="650" y2="30" stroke="#30363d"/>
<text x="500" y="46" fill="#9198a1" font-size="12" text-anchor="end">C</text>
<text x="574" y="46" fill="#9198a1" font-size="12" text-anchor="end">Ember</text>
<text x="648" y="46" fill="#9198a1" font-size="12" text-anchor="end">Ember ÷ C</text>
<text x="791.0" y="22" fill="#e6edf3" font-weight="600" text-anchor="middle">clang</text>
<line x1="686" y1="30" x2="896" y2="30" stroke="#30363d"/>
<text x="746" y="46" fill="#9198a1" font-size="12" text-anchor="end">C</text>
<text x="820" y="46" fill="#9198a1" font-size="12" text-anchor="end">Ember</text>
<text x="894" y="46" fill="#9198a1" font-size="12" text-anchor="end">Ember ÷ C</text>
<text x="1037.0" y="22" fill="#e6edf3" font-weight="600" text-anchor="middle">gcc (Linux)</text>
<line x1="932" y1="30" x2="1142" y2="30" stroke="#30363d"/>
<text x="992" y="46" fill="#9198a1" font-size="12" text-anchor="end">C</text>
<text x="1066" y="46" fill="#9198a1" font-size="12" text-anchor="end">Ember</text>
<text x="1140" y="46" fill="#9198a1" font-size="12" text-anchor="end">Ember ÷ C</text>
<line x1="0" y1="57" x2="1164" y2="57" stroke="#30363d"/>
<text x="16" y="83" fill="#e6edf3" xml:space="preserve">Recursion: Fibonacci of 38, the slow way ³</text>
<text x="500" y="83.0" fill="#9198a1" text-anchor="end">103 ms</text>
<text x="574" y="83.0" fill="#e6edf3" text-anchor="end">109 ms</text>
<text x="648" y="83.0" fill="#d29922" text-anchor="end" font-weight="400">×1.06</text>
<text x="746" y="83.0" fill="#9198a1" text-anchor="end">63 ms</text>
<text x="820" y="83.0" fill="#e6edf3" text-anchor="end">111 ms</text>
<text x="894" y="83.0" fill="#f85149" text-anchor="end" font-weight="400">×1.75</text>
<text x="992" y="83.0" fill="#9198a1" text-anchor="end">26 ms</text>
<text x="1066" y="83.0" fill="#e6edf3" text-anchor="end">0.5 ms</text>
<text x="1140" y="83.0" fill="#3fb950" text-anchor="end" font-weight="700">×0.02</text>
<rect x="0" y="98" width="1164" height="60" fill="#151b23"/>
<text x="16" y="123" fill="#e6edf3" xml:space="preserve">Count the lines of a 3 MB text and their lengths, 200 times:</text>
<text x="16" y="143" fill="#e6edf3" xml:space="preserve"><tspan font-family="ui-monospace, 'SFMono-Regular', Consolas, monospace" font-size="13">text.lines()</tspan></text>
<text x="500" y="133.0" fill="#9198a1" text-anchor="end">60 ms</text>
<text x="574" y="133.0" fill="#e6edf3" text-anchor="end">69 ms</text>
<text x="648" y="133.0" fill="#f85149" text-anchor="end" font-weight="400">×1.16</text>
<text x="746" y="133.0" fill="#9198a1" text-anchor="end">60 ms</text>
<text x="820" y="133.0" fill="#e6edf3" text-anchor="end">64 ms</text>
<text x="894" y="133.0" fill="#d29922" text-anchor="end" font-weight="400">×1.06</text>
<text x="992" y="133.0" fill="#9198a1" text-anchor="end">53 ms</text>
<text x="1066" y="133.0" fill="#e6edf3" text-anchor="end">52 ms</text>
<text x="1140" y="133.0" fill="#3fb950" text-anchor="end" font-weight="400">×0.99</text>
<text x="16" y="183" fill="#e6edf3" xml:space="preserve">1 million objects with a name and a list, each read 40 times</text>
<text x="500" y="183.0" fill="#9198a1" text-anchor="end">229 ms</text>
<text x="574" y="183.0" fill="#e6edf3" text-anchor="end">207 ms</text>
<text x="648" y="183.0" fill="#3fb950" text-anchor="end" font-weight="700">×0.91</text>
<text x="746" y="183.0" fill="#9198a1" text-anchor="end">232 ms</text>
<text x="820" y="183.0" fill="#e6edf3" text-anchor="end">214 ms</text>
<text x="894" y="183.0" fill="#3fb950" text-anchor="end" font-weight="700">×0.92</text>
<text x="992" y="183.0" fill="#9198a1" text-anchor="end">150 ms</text>
<text x="1066" y="183.0" fill="#e6edf3" text-anchor="end">171 ms</text>
<text x="1140" y="183.0" fill="#f85149" text-anchor="end" font-weight="400">×1.13</text>
</svg>